# xmcd
#
# Track frame offsets:
#	150
#	9539
#	28663
#	46995
#	59369
#	74103
#	85504
#	95735
#	114505
#	127164
#	138931
#	158480
#	173557
#	185647
#	203723
#	225330
#
# Disc length: 3277 seconds
#
# Revision: 1
# Processed by: cddbd v1.4PL0 Copyright (c) Steve Scherf et al.
# Submitted via: audiograbber 1.80
#
DISCID=d40ccb10
DTITLE=William Elliott Whitmore - Born In The U.S.A.
DYEAR=1900
DGENRE=
TTITLE0=Grey Skies
TTITLE1=Marrow
TTITLE2=Livin' Like A King
TTITLE3=South Lee Brew
TTITLE4=Gravel Road
TTITLE5=On The Chin
TTITLE6=The Prairie Yields
TTITLE7=Diggin' My Grave
TTITLE8=Going To The Moments
TTITLE9=Black Iowa Dirt
TTITLE10=Lift My Jug
TTITLE11=Let's Call It A Night
TTITLE12=Have Mercy
TTITLE13=Red Buds
TTITLE14=Shotgun
TTITLE15=Never Forget
EXTD=
EXTT0=
EXTT1=
EXTT2=
EXTT3=
EXTT4=
EXTT5=
EXTT6=
EXTT7=
EXTT8=
EXTT9=
EXTT10=
EXTT11=
EXTT12=
EXTT13=
EXTT14=
EXTT15=
PLAYORDER=
